<svg width="90" height="90" viewBox="0 0 90 90" fill="none" xmlns="http://www.w3.org/2000/svg">
<g opacity="0.9" clip-path="url(#clip0_3067_47)">
<circle cx="45" cy="45" r="45" fill="#496EE8"/>
<g clip-path="url(#clip1_3067_47)">
<path d="M61 41.3333V53.3333C60.9979 55.1008 60.2948 56.7953 59.045 58.045C57.7953 59.2948 56.1008 59.9979 54.3333 60H35.6667C33.8992 59.9979 32.2047 59.2948 30.955 58.045C29.7052 56.7953 29.0021 55.1008 29 53.3333V38.6667C29.0021 36.8992 29.7052 35.2047 30.955 33.955C32.2047 32.7052 33.8992 32.0021 35.6667 32H46.3333C46.687 32 47.0261 32.1405 47.2761 32.3905C47.5262 32.6406 47.6667 32.9797 47.6667 33.3333C47.6667 33.687 47.5262 34.0261 47.2761 34.2761C47.0261 34.5262 46.687 34.6667 46.3333 34.6667H35.6667C34.9416 34.6687 34.2308 34.8684 33.6108 35.2443C32.9908 35.6202 32.4851 36.1581 32.148 36.8L42.1707 46.824C42.9223 47.5721 43.9396 47.9921 45 47.9921C46.0604 47.9921 47.0777 47.5721 47.8293 46.824L52.924 41.7333C53.1755 41.4905 53.5123 41.3561 53.8619 41.3591C54.2115 41.3621 54.5459 41.5024 54.7931 41.7496C55.0403 41.9968 55.1805 42.3312 55.1836 42.6808C55.1866 43.0304 55.0522 43.3672 54.8093 43.6187L49.7147 48.7147C48.463 49.9627 46.7676 50.6635 45 50.6635C43.2325 50.6635 41.537 49.9627 40.2853 48.7147L31.6667 40.0947V53.3333C31.6667 54.3942 32.0881 55.4116 32.8382 56.1618C33.5884 56.9119 34.6058 57.3333 35.6667 57.3333H54.3333C55.3942 57.3333 56.4116 56.9119 57.1618 56.1618C57.9119 55.4116 58.3333 54.3942 58.3333 53.3333V41.3333C58.3333 40.9797 58.4738 40.6406 58.7239 40.3905C58.9739 40.1405 59.313 40 59.6667 40C60.0203 40 60.3594 40.1405 60.6095 40.3905C60.8595 40.6406 61 40.9797 61 41.3333V41.3333ZM51.6667 34.6667H54.3333V37.3333C54.3333 37.687 54.4738 38.0261 54.7239 38.2761C54.9739 38.5262 55.313 38.6667 55.6667 38.6667C56.0203 38.6667 56.3594 38.5262 56.6095 38.2761C56.8595 38.0261 57 37.687 57 37.3333V34.6667H59.6667C60.0203 34.6667 60.3594 34.5262 60.6095 34.2761C60.8595 34.0261 61 33.687 61 33.3333C61 32.9797 60.8595 32.6406 60.6095 32.3905C60.3594 32.1405 60.0203 32 59.6667 32H57V29.3333C57 28.9797 56.8595 28.6406 56.6095 28.3905C56.3594 28.1405 56.0203 28 55.6667 28C55.313 28 54.9739 28.1405 54.7239 28.3905C54.4738 28.6406 54.3333 28.9797 54.3333 29.3333V32H51.6667C51.313 32 50.9739 32.1405 50.7239 32.3905C50.4738 32.6406 50.3333 32.9797 50.3333 33.3333C50.3333 33.687 50.4738 34.0261 50.7239 34.2761C50.9739 34.5262 51.313 34.6667 51.6667 34.6667Z" fill="white"/>
</g>
</g>
<defs>
<clipPath id="clip0_3067_47">
<rect width="90" height="90" fill="white"/>
</clipPath>
<clipPath id="clip1_3067_47">
<rect width="32" height="32" fill="white" transform="translate(29 28)"/>
</clipPath>
</defs>
</svg>
