<svg width="90" height="90" viewBox="0 0 90 90" fill="none" xmlns="http://www.w3.org/2000/svg">
<g opacity="0.9" clip-path="url(#clip0_3067_47)">
<circle cx="45" cy="45" r="45" fill="#496EE8"/>
<g clip-path="url(#clip1_3067_47)">
<path d="M65 41.6667V56.6667C64.9974 58.876 64.1185 60.9941 62.5563 62.5563C60.9941 64.1185 58.876 64.9974 56.6667 65H33.3333C31.124 64.9974 29.0059 64.1185 27.4437 62.5563C25.8815 60.9941 25.0026 58.876 25 56.6667V38.3333C25.0026 36.124 25.8815 34.0059 27.4437 32.4437C29.0059 30.8815 31.124 30.0026 33.3333 30H46.6667C47.1087 30 47.5326 30.1756 47.8452 30.4882C48.1577 30.8007 48.3333 31.2246 48.3333 31.6667C48.3333 32.1087 48.1577 32.5326 47.8452 32.8452C47.5326 33.1577 47.1087 33.3333 46.6667 33.3333H33.3333C32.427 33.3358 31.5385 33.5855 30.7635 34.0553C29.9885 34.5252 29.3563 35.1976 28.935 36L41.4633 48.53C42.4028 49.4651 43.6744 49.9901 45 49.9901C46.3256 49.9901 47.5972 49.4651 48.5367 48.53L54.905 42.1667C55.2193 41.8631 55.6403 41.6951 56.0773 41.6989C56.5143 41.7027 56.9323 41.878 57.2414 42.187C57.5504 42.496 57.7257 42.914 57.7295 43.351C57.7333 43.788 57.5653 44.209 57.2617 44.5233L50.8933 50.8933C49.3287 52.4534 47.2094 53.3294 45 53.3294C42.7906 53.3294 40.6713 52.4534 39.1067 50.8933L28.3333 40.1183V56.6667C28.3333 57.9927 28.8601 59.2645 29.7978 60.2022C30.7355 61.1399 32.0073 61.6667 33.3333 61.6667H56.6667C57.9927 61.6667 59.2645 61.1399 60.2022 60.2022C61.1399 59.2645 61.6667 57.9927 61.6667 56.6667V41.6667C61.6667 41.2246 61.8423 40.8007 62.1548 40.4882C62.4674 40.1756 62.8913 40 63.3333 40C63.7754 40 64.1993 40.1756 64.5118 40.4882C64.8244 40.8007 65 41.2246 65 41.6667V41.6667ZM53.3333 33.3333H56.6667V36.6667C56.6667 37.1087 56.8423 37.5326 57.1548 37.8452C57.4674 38.1577 57.8913 38.3333 58.3333 38.3333C58.7754 38.3333 59.1993 38.1577 59.5118 37.8452C59.8244 37.5326 60 37.1087 60 36.6667V33.3333H63.3333C63.7754 33.3333 64.1993 33.1577 64.5118 32.8452C64.8244 32.5326 65 32.1087 65 31.6667C65 31.2246 64.8244 30.8007 64.5118 30.4882C64.1993 30.1756 63.7754 30 63.3333 30H60V26.6667C60 26.2246 59.8244 25.8007 59.5118 25.4882C59.1993 25.1756 58.7754 25 58.3333 25C57.8913 25 57.4674 25.1756 57.1548 25.4882C56.8423 25.8007 56.6667 26.2246 56.6667 26.6667V30H53.3333C52.8913 30 52.4674 30.1756 52.1548 30.4882C51.8423 30.8007 51.6667 31.2246 51.6667 31.6667C51.6667 32.1087 51.8423 32.5326 52.1548 32.8452C52.4674 33.1577 52.8913 33.3333 53.3333 33.3333Z" fill="white"/>
</g>
</g>
<defs>
<clipPath id="clip0_3067_47">
<rect width="90" height="90" fill="white"/>
</clipPath>
<clipPath id="clip1_3067_47">
<rect width="40" height="40" fill="white" transform="translate(25 25)"/>
</clipPath>
</defs>
</svg>
