<svg width="90" height="90" viewBox="0 0 90 90" fill="none" xmlns="http://www.w3.org/2000/svg">
<g opacity="0.9" clip-path="url(#clip0_3067_57)">
<circle cx="45" cy="45" r="45" fill="#496EE8"/>
<g clip-path="url(#clip1_3067_57)">
<path d="M49.967 36.705V30.0383C49.967 29.5963 50.1426 29.1724 50.4552 28.8598C50.7677 28.5472 51.1916 28.3716 51.6337 28.3716C52.0757 28.3716 52.4996 28.5472 52.8122 28.8598C53.1247 29.1724 53.3003 29.5963 53.3003 30.0383V34.39C54.3503 33.3333 61.1353 26.5133 62.122 25.5266C62.2758 25.3675 62.4597 25.2405 62.663 25.1531C62.8663 25.0658 63.085 25.0198 63.3063 25.0179C63.5276 25.016 63.7471 25.0581 63.9519 25.1419C64.1568 25.2257 64.3428 25.3495 64.4993 25.506C64.6558 25.6625 64.7796 25.8486 64.8634 26.0534C64.9472 26.2582 64.9893 26.4777 64.9874 26.699C64.9855 26.9203 64.9395 27.139 64.8522 27.3423C64.7648 27.5456 64.6379 27.7296 64.4787 27.8833C63.492 28.87 56.742 35.6583 55.6987 36.705H59.967C60.409 36.705 60.833 36.8806 61.1455 37.1931C61.4581 37.5057 61.6337 37.9296 61.6337 38.3716C61.6337 38.8137 61.4581 39.2376 61.1455 39.5501C60.833 39.8627 60.409 40.0383 59.967 40.0383H53.3003C52.4163 40.0383 51.5684 39.6871 50.9433 39.062C50.3182 38.4369 49.967 37.589 49.967 36.705ZM63.4587 52.9366C64.4245 53.9052 64.9669 55.2172 64.9669 56.585C64.9669 57.9528 64.4245 59.2648 63.4587 60.2333L61.9387 61.9833C48.287 75.0466 15.0737 41.8433 27.9387 28.15L29.8553 26.4833C30.8247 25.5442 32.1249 25.0245 33.4745 25.0367C34.8241 25.0489 36.1147 25.5919 37.067 26.5483C37.1187 26.5983 40.2053 30.6116 40.2053 30.6116C41.1185 31.5759 41.6267 32.8539 41.6248 34.182C41.6229 35.51 41.1112 36.7866 40.1953 37.7483L38.2653 40.175C39.3337 42.77 40.9041 45.1284 42.8865 47.1148C44.8689 49.1012 47.2241 50.6764 49.817 51.75L52.2587 49.8083C53.2184 48.89 54.495 48.3766 55.8233 48.3747C57.1517 48.3729 58.4297 48.8827 59.392 49.7983C59.392 49.7983 63.407 52.8866 63.4587 52.9366V52.9366ZM61.167 55.36C61.167 55.36 57.1787 52.29 57.127 52.24C56.7836 51.8995 56.3197 51.7085 55.8362 51.7085C55.3526 51.7085 54.8887 51.8995 54.5453 52.24C54.5003 52.2833 51.1387 54.9633 51.1387 54.9633C50.9121 55.1436 50.6425 55.2618 50.3564 55.3062C50.0703 55.3507 49.7776 55.3198 49.507 55.2166C46.146 53.9662 43.0932 52.0077 40.5555 49.474C38.0178 46.9403 36.0545 43.8906 34.7987 40.5316C34.6873 40.2574 34.651 39.9584 34.6935 39.6655C34.736 39.3726 34.8557 39.0963 35.0403 38.865C35.0403 38.865 37.7203 35.5083 37.7653 35.465C38.1058 35.1216 38.2968 34.6577 38.2968 34.1741C38.2968 33.6906 38.1058 33.2267 37.7653 32.8833C37.7153 32.8333 34.6453 28.8416 34.6453 28.8416C34.2968 28.5291 33.842 28.3618 33.3741 28.3739C32.9062 28.386 32.4606 28.5766 32.1287 28.9066L30.212 30.5733C20.8087 41.8783 49.5953 69.0683 59.5003 59.7116L61.0203 57.96C61.3787 57.6311 61.5945 57.1754 61.6219 56.6898C61.6493 56.2042 61.4861 55.727 61.167 55.36V55.36Z" fill="white"/>
</g>
</g>
<defs>
<clipPath id="clip0_3067_57">
<rect width="90" height="90" fill="white"/>
</clipPath>
<clipPath id="clip1_3067_57">
<rect width="40" height="40" fill="white" transform="translate(25 25)"/>
</clipPath>
</defs>
</svg>

