<svg width="90" height="90" viewBox="0 0 90 90" fill="none" xmlns="http://www.w3.org/2000/svg">
<g opacity="0.9" clip-path="url(#clip0_3067_57)">
<circle cx="45" cy="45" r="45" fill="#496EE8"/>
<g clip-path="url(#clip1_3067_57)">
<path d="M47.9735 39.364V34.0307C47.9735 33.677 48.114 33.3379 48.3641 33.0879C48.6141 32.8378 48.9532 32.6973 49.3069 32.6973C49.6605 32.6973 49.9996 32.8378 50.2497 33.0879C50.4997 33.3379 50.6402 33.677 50.6402 34.0307V37.512C51.4802 36.6667 56.9082 31.2107 57.6975 30.4213C57.8205 30.294 57.9677 30.1924 58.1303 30.1225C58.293 30.0527 58.468 30.0159 58.645 30.0143C58.822 30.0128 58.9976 30.0465 59.1615 30.1136C59.3253 30.1806 59.4742 30.2796 59.5994 30.4048C59.7246 30.53 59.8236 30.6789 59.8906 30.8427C59.9577 31.0066 59.9914 31.1822 59.9899 31.3592C59.9883 31.5362 59.9516 31.7112 59.8817 31.8739C59.8118 32.0365 59.7102 32.1837 59.5829 32.3067C58.7935 33.096 53.3935 38.5267 52.5589 39.364H55.9735C56.3272 39.364 56.6663 39.5045 56.9163 39.7545C57.1664 40.0046 57.3069 40.3437 57.3069 40.6973C57.3069 41.051 57.1664 41.3901 56.9163 41.6401C56.6663 41.8902 56.3272 42.0307 55.9735 42.0307H50.6402C49.933 42.0307 49.2547 41.7497 48.7546 41.2496C48.2545 40.7495 47.9735 40.0712 47.9735 39.364ZM58.7669 52.3493C59.5396 53.1242 59.9735 54.1738 59.9735 55.268C59.9735 56.3623 59.5396 57.4118 58.7669 58.1867L57.5509 59.5867C46.6295 70.0373 20.0589 43.4747 30.3509 32.52L31.8842 31.1867C32.6597 30.4354 33.6998 30.0197 34.7795 30.0294C35.8592 30.0391 36.8917 30.4735 37.6535 31.2387C37.6949 31.2787 40.1642 34.4893 40.1642 34.4893C40.8948 35.2607 41.3013 36.2832 41.2998 37.3456C41.2983 38.408 40.8889 39.4293 40.1562 40.1987L38.6122 42.14C39.4669 44.216 40.7232 46.1028 42.3091 47.6919C43.895 49.281 45.7792 50.5412 47.8535 51.4L49.8069 49.8467C50.5747 49.112 51.5959 48.7013 52.6586 48.6998C53.7213 48.6983 54.7437 49.1062 55.5135 49.8387C55.5135 49.8387 58.7255 52.3093 58.7669 52.3493V52.3493ZM56.9335 54.288C56.9335 54.288 53.7429 51.832 53.7015 51.792C53.4268 51.5196 53.0557 51.3668 52.6689 51.3668C52.282 51.3668 51.9109 51.5196 51.6362 51.792C51.6002 51.8267 48.9109 53.9707 48.9109 53.9707C48.7296 54.1149 48.514 54.2095 48.2851 54.245C48.0562 54.2806 47.822 54.2558 47.6055 54.1733C44.9168 53.173 42.4745 51.6062 40.4443 49.5792C38.4141 47.5523 36.8435 45.1125 35.8389 42.4253C35.7498 42.2059 35.7208 41.9668 35.7547 41.7325C35.7887 41.4981 35.8845 41.2771 36.0322 41.092C36.0322 41.092 38.1762 38.4067 38.2122 38.372C38.4846 38.0973 38.6374 37.7262 38.6374 37.3393C38.6374 36.9525 38.4846 36.5814 38.2122 36.3067C38.1722 36.2667 35.7162 33.0733 35.7162 33.0733C35.4374 32.8233 35.0735 32.6895 34.6992 32.6991C34.3249 32.7088 33.9684 32.8613 33.7029 33.1253L32.1695 34.4587C24.6469 43.5027 47.6762 65.2547 55.6002 57.7693L56.8162 56.368C57.1029 56.1049 57.2756 55.7403 57.2975 55.3518C57.3194 54.9634 57.1888 54.5817 56.9335 54.288V54.288Z" fill="white"/>
</g>
</g>
<defs>
<clipPath id="clip0_3067_57">
<rect width="90" height="90" fill="white"/>
</clipPath>
<clipPath id="clip1_3067_57">
<rect width="32" height="32" fill="white" transform="translate(28 30)"/>
</clipPath>
</defs>
</svg>
