<svg width="90" height="90" viewBox="0 0 90 90" fill="none" xmlns="http://www.w3.org/2000/svg">
<g opacity="0.9" clip-path="url(#clip0_3067_52)">
<rect width="90" height="90" fill="white"/>
<circle cx="45" cy="45" r="45" fill="#496EE8"/>
<g clip-path="url(#clip1_3067_52)">
<path d="M58.0667 34.4387L48.7333 28.1401C47.6323 27.3913 46.3315 26.9908 45 26.9908C43.6685 26.9908 42.3677 27.3913 41.2667 28.1401L31.9333 34.4387C31.0295 35.0496 30.2895 35.873 29.778 36.8366C29.2666 37.8001 28.9994 38.8745 29 39.9654V52.3334C29.0021 54.1009 29.7052 55.7953 30.955 57.0451C32.2047 58.2949 33.8992 58.9979 35.6667 59.0001H54.3333C56.1008 58.9979 57.7953 58.2949 59.045 57.0451C60.2948 55.7953 60.9979 54.1009 61 52.3334V39.9654C61.0006 38.8745 60.7334 37.8001 60.222 36.8366C59.7105 35.873 58.9705 35.0496 58.0667 34.4387V34.4387ZM58.3333 52.3334C58.3333 53.3943 57.9119 54.4117 57.1618 55.1618C56.4116 55.912 55.3942 56.3334 54.3333 56.3334H35.6667C34.6058 56.3334 33.5884 55.912 32.8382 55.1618C32.0881 54.4117 31.6667 53.3943 31.6667 52.3334V39.9654C31.6666 39.3106 31.8273 38.6658 32.1347 38.0877C32.442 37.5095 32.8866 37.0156 33.4293 36.6494L42.7627 30.3507C43.4226 29.9023 44.2021 29.6626 45 29.6626C45.7979 29.6626 46.5774 29.9023 47.2373 30.3507L56.5707 36.6494C57.1134 37.0156 57.558 37.5095 57.8653 38.0877C58.1727 38.6658 58.3334 39.3106 58.3333 39.9654V52.3334ZM45 36.3414C43.4163 36.3412 41.8682 36.811 40.5518 37.6914C39.2354 38.5718 38.2099 39.8231 37.6052 41.2868C37.0005 42.7504 36.8438 44.3607 37.155 45.9135C37.4662 47.4663 38.2313 48.8918 39.3533 50.0094L41.7853 52.3881C42.6471 53.2226 43.7997 53.6892 44.9993 53.6892C46.199 53.6892 47.3516 53.2226 48.2133 52.3881L50.6573 49.9987C51.7763 48.8799 52.5384 47.4544 52.8472 45.9024C53.156 44.3504 52.9975 42.7417 52.3919 41.2798C51.7864 39.8179 50.7608 38.5684 49.4451 37.6893C48.1293 36.8103 46.5824 36.3412 45 36.3414V36.3414ZM48.7813 48.1027L46.348 50.4827C45.9864 50.8329 45.5027 51.0287 44.9993 51.0287C44.4959 51.0287 44.0123 50.8329 43.6507 50.4827L41.228 48.1134C40.4826 47.368 39.9748 46.4183 39.7688 45.3845C39.5628 44.3506 39.6678 43.2789 40.0706 42.3047C40.4733 41.3305 41.1557 40.4975 42.0316 39.9109C42.9075 39.3243 43.9376 39.0104 44.9918 39.0089C46.046 39.0074 47.077 39.3184 47.9545 39.9025C48.8321 40.4866 49.5169 41.3177 49.9223 42.2908C50.3278 43.2639 50.4359 44.3353 50.2328 45.3697C50.0297 46.4041 49.5246 47.3552 48.7813 48.1027V48.1027ZM46.3333 44.3334C46.3333 44.5971 46.2551 44.8549 46.1086 45.0742C45.9621 45.2934 45.7539 45.4643 45.5102 45.5652C45.2666 45.6661 44.9985 45.6926 44.7399 45.6411C44.4812 45.5897 44.2437 45.4627 44.0572 45.2762C43.8707 45.0897 43.7437 44.8522 43.6923 44.5935C43.6408 44.3349 43.6672 44.0668 43.7682 43.8231C43.8691 43.5795 44.04 43.3713 44.2592 43.2248C44.4785 43.0783 44.7363 43.0001 45 43.0001C45.3536 43.0001 45.6928 43.1405 45.9428 43.3906C46.1929 43.6406 46.3333 43.9798 46.3333 44.3334Z" fill="white"/>
</g>
</g>
<defs>
<clipPath id="clip0_3067_52">
<rect width="90" height="90" fill="white"/>
</clipPath>
<clipPath id="clip1_3067_52">
<rect width="32" height="32" fill="white" transform="translate(29 27)"/>
</clipPath>
</defs>
</svg>
