<svg width="90" height="90" viewBox="0 0 90 90" fill="none" xmlns="http://www.w3.org/2000/svg">
<g opacity="0.9" clip-path="url(#clip0_3067_62)">
<circle cx="45" cy="45" r="45" fill="#496EE8"/>
<g clip-path="url(#clip1_3067_62)">
<path d="M58.8253 31.1761C58.3473 30.6922 57.7525 30.3399 57.0986 30.153C56.4446 29.9662 55.7535 29.9511 55.092 30.1094L33.7586 34.6027C32.5301 34.7712 31.373 35.2794 30.4176 36.0699C29.4622 36.8605 28.7465 37.9021 28.3511 39.0775C27.9558 40.2528 27.8964 41.5152 28.1797 42.7225C28.463 43.9298 29.0777 45.0339 29.9546 45.9107L32.2453 48.2001C32.3693 48.324 32.4676 48.4712 32.5346 48.6332C32.6017 48.7951 32.6361 48.9688 32.636 49.1441V53.3681C32.6389 53.962 32.7756 54.5476 33.036 55.0814L33.0253 55.0907L33.06 55.1254C33.4507 55.9109 34.0887 56.5462 34.876 56.9334L34.9106 56.9681L34.92 56.9574C35.4538 57.2177 36.0394 57.3544 36.6333 57.3574H40.8573C41.2107 57.3571 41.5498 57.4971 41.8 57.7467L44.0893 60.0361C44.7033 60.6569 45.4342 61.1501 46.2397 61.4871C47.0452 61.8242 47.9094 61.9985 48.7826 62.0001C49.5103 61.9992 50.233 61.8803 50.9226 61.6481C52.0872 61.2657 53.1218 60.5654 53.9096 59.6263C54.6974 58.6873 55.2072 57.5467 55.3813 56.3334L59.8813 34.9534C60.0478 34.2862 60.038 33.5873 59.8528 32.9251C59.6677 32.2629 59.3136 31.6602 58.8253 31.1761V31.1761ZM34.1333 46.3174L31.8413 44.0281C31.3076 43.5072 30.9335 42.8449 30.763 42.1189C30.5925 41.3929 30.6326 40.6334 30.8786 39.9294C31.1172 39.2072 31.5581 38.5686 32.149 38.0897C32.74 37.6109 33.456 37.3118 34.212 37.2281L55.3333 32.7814L35.3 52.8174V49.1441C35.302 48.6192 35.1999 48.0991 34.9997 47.6139C34.7994 47.1287 34.5049 46.6881 34.1333 46.3174V46.3174ZM52.7613 55.8774C52.6589 56.6138 52.3533 57.3072 51.8788 57.8796C51.4042 58.452 50.7795 58.8808 50.0748 59.1179C49.3701 59.3549 48.6132 59.3909 47.8892 59.2217C47.1652 59.0525 46.5027 58.6849 45.976 58.1601L43.6826 55.8667C43.3125 55.4945 42.8722 55.1994 42.3872 54.9985C41.9022 54.7975 41.3822 54.6947 40.8573 54.6961H37.184L57.22 34.6667L52.7613 55.8774Z" fill="white"/>
</g>
</g>
<defs>
<clipPath id="clip0_3067_62">
<rect width="90" height="90" fill="white"/>
</clipPath>
<clipPath id="clip1_3067_62">
<rect width="32" height="32" fill="white" transform="translate(28 30)"/>
</clipPath>
</defs>
</svg>
