<svg width="90" height="90" viewBox="0 0 90 90" fill="none" xmlns="http://www.w3.org/2000/svg">
<g opacity="0.9" clip-path="url(#clip0_3067_62)">
<circle cx="45" cy="45" r="45" fill="#496EE8"/>
<g clip-path="url(#clip1_3067_62)">
<path d="M63.5316 26.47C62.9341 25.8652 62.1906 25.4247 61.3732 25.1912C60.5557 24.9576 59.6918 24.9388 58.8649 25.1366L32.1983 30.7533C30.6626 30.9639 29.2162 31.5991 28.0219 32.5873C26.8277 33.5756 25.9331 34.8776 25.4389 36.3468C24.9447 37.8159 24.8704 39.3939 25.2246 40.903C25.5787 42.4121 26.3471 43.7923 27.4433 44.8883L30.3066 47.75C30.4616 47.9049 30.5845 48.0889 30.6683 48.2914C30.7521 48.4938 30.7951 48.7108 30.7949 48.93V54.21C30.7986 54.9524 30.9695 55.6844 31.2949 56.3516L31.2816 56.3633L31.3249 56.4066C31.8133 57.3885 32.6109 58.1826 33.5949 58.6666L33.6383 58.71L33.6499 58.6966C34.3172 59.0221 35.0492 59.193 35.7916 59.1966H41.0716C41.5134 59.1963 41.9372 59.3713 42.2499 59.6833L45.1116 62.545C45.8791 63.321 46.7927 63.9375 47.7996 64.3588C48.8065 64.7802 49.8868 64.9981 50.9783 65C51.8879 64.9988 52.7912 64.8503 53.6533 64.56C55.109 64.082 56.4022 63.2067 57.387 62.0328C58.3718 60.859 59.0089 59.4333 59.2266 57.9166L64.8516 31.1916C65.0597 30.3577 65.0474 29.484 64.816 28.6563C64.5846 27.8285 64.142 27.0751 63.5316 26.47V26.47ZM32.6666 45.3966L29.8016 42.535C29.1345 41.8839 28.6669 41.0561 28.4537 40.1486C28.2406 39.2411 28.2907 38.2916 28.5983 37.4116C28.8964 36.5089 29.4476 35.7107 30.1863 35.1121C30.9249 34.5135 31.82 34.1396 32.7649 34.035L59.1666 28.4766L34.1249 53.5216V48.93C34.1275 48.2739 33.9999 47.6238 33.7496 47.0173C33.4992 46.4108 33.1312 45.86 32.6666 45.3966V45.3966ZM55.9516 57.3466C55.8236 58.2672 55.4416 59.1339 54.8484 59.8494C54.2553 60.5649 53.4744 61.1009 52.5935 61.3972C51.7126 61.6936 50.7665 61.7385 49.8615 61.527C48.9565 61.3156 48.1283 60.856 47.4699 60.2L44.6033 57.3333C44.1406 56.8681 43.5902 56.4992 42.984 56.248C42.3778 55.9968 41.7278 55.8683 41.0716 55.87H36.4799L61.5249 30.8333L55.9516 57.3466Z" fill="white"/>
</g>
</g>
<defs>
<clipPath id="clip0_3067_62">
<rect width="90" height="90" fill="white"/>
</clipPath>
<clipPath id="clip1_3067_62">
<rect width="40" height="40" fill="white" transform="translate(25 25)"/>
</clipPath>
</defs>
</svg>
